<?xml version="1.0" encoding="UTF-8" standalone="no"?>
<svg
   id="svg4153"
   version="1.1"
   width="32.000004"
   height="32"
   viewBox="0 0 32.000004 32"
   sodipodi:docname="offMonitor.svg"
   inkscape:version="1.3 (0e150ed6c4, 2023-07-21)"
   xmlns:inkscape="http://www.inkscape.org/namespaces/inkscape"
   xmlns:sodipodi="http://sodipodi.sourceforge.net/DTD/sodipodi-0.dtd"
   xmlns="http://www.w3.org/2000/svg"
   xmlns:svg="http://www.w3.org/2000/svg"
   xmlns:rdf="http://www.w3.org/1999/02/22-rdf-syntax-ns#"
   xmlns:cc="http://creativecommons.org/ns#"
   xmlns:dc="http://purl.org/dc/elements/1.1/">
  <sodipodi:namedview
     id="namedview1"
     pagecolor="#ffffff"
     bordercolor="#000000"
     borderopacity="0.25"
     inkscape:showpageshadow="2"
     inkscape:pageopacity="0.0"
     inkscape:pagecheckerboard="0"
     inkscape:deskcolor="#d1d1d1"
     showgrid="true"
     inkscape:zoom="24.906247"
     inkscape:cx="15.979927"
     inkscape:cy="12.767881"
     inkscape:window-width="1920"
     inkscape:window-height="1048"
     inkscape:window-x="0"
     inkscape:window-y="0"
     inkscape:window-maximized="1"
     inkscape:current-layer="monitor-sqr">
    <inkscape:grid
       id="grid2"
       units="px"
       originx="0"
       originy="0"
       spacingx="1"
       spacingy="1"
       empcolor="#0099e5"
       empopacity="0.30196078"
       color="#0099e5"
       opacity="0.14901961"
       empspacing="5"
       dotted="false"
       gridanglex="30"
       gridanglez="30"
       visible="true" />
  </sodipodi:namedview>
  <metadata
     id="metadata4159">
    <rdf:RDF>
      <cc:Work
         rdf:about="">
        <dc:format>image/svg+xml</dc:format>
        <dc:type
           rdf:resource="http://purl.org/dc/dcmitype/StillImage" />
      </cc:Work>
    </rdf:RDF>
  </metadata>
  <defs
     id="defs4157">
    <style
       type="text/css"
       id="current-color-scheme">&#10;      .ColorScheme-Text {&#10;        color:#31363b;&#10;      }&#10;      .ColorScheme-Background {&#10;        color:#eff0f1;&#10;      }&#10;      .ColorScheme-Highlight {&#10;        color:#3daee9;&#10;      }&#10;      .ColorScheme-ViewText {&#10;        color:#31363b;&#10;      }&#10;      .ColorScheme-ViewBackground {&#10;        color:#fcfcfc;&#10;      }&#10;      .ColorScheme-ViewHover {&#10;        color:#93cee9;&#10;      }&#10;      .ColorScheme-ViewFocus{&#10;        color:#3daee9;&#10;      }&#10;      .ColorScheme-ButtonText {&#10;        color:#31363b;&#10;      }&#10;      .ColorScheme-ButtonBackground {&#10;        color:#eff0f1;&#10;      }&#10;      .ColorScheme-ButtonHover {&#10;        color:#93cee9;&#10;      }&#10;      .ColorScheme-ButtonFocus{&#10;        color:#3daee9;&#10;      }&#10;      </style>
  </defs>
  <g
     id="monitor-cir">
    <rect
       x="0"
       y="0"
       height="32"
       width="32"
       id="rect18"
       style="opacity:1;fill:none;fill-opacity:1;stroke:none" />
    <path
       id="monitor_cir"
       d="M 16,2 C 8.2739358,1.9999999 1.9999999,8.2739363 2,16 2,23.726064 8.2739358,30 16,30 23.726064,30 30,23.726064 30,16 30,8.2739364 23.726064,2 16,2 Z m 0,1 C 23.185642,3 29,8.8143587 29,16 29,23.185641 23.185642,29 16,29 8.8143581,29 3,23.185641 3,16 2.9999999,8.8143586 8.814358,2.9999999 16,3 Z M 6,9 5.9902344,22.990234 15,23 v 2 h -5 v 1 h 12 v -1 h -5 v -2 h 9 V 9 Z m 1,1 H 25 V 21 H 7 Z"
       class="ColorScheme-Text"
       style="fill:currentColor" />
  </g>
  <g
     id="monitor-sqr">
    <rect
       x="0"
       y="0"
       height="32"
       width="32"
       id="rect1"
       style="opacity:1;fill:none;fill-opacity:1;stroke:none" />
    <path
       id="monitor_sqr"
       d="M 2,2 V 30 H 30 V 2 Z M 3,3 H 29 V 29 H 3 Z M 6,9 5.9902344,22.990234 15,23 v 2 h -5 v 1 h 12 v -1 h -5 v -2 h 9 V 9 Z m 1,1 H 25 V 21 H 7 Z"
       class="ColorScheme-Text"
       style="fill:currentColor"
       sodipodi:nodetypes="cccccccccccccccccccccccccccc" />
  </g>
  <g
     height="32"
     width="32"
     id="monitor-panel">
    <rect
       id="rect843"
       width="32"
       height="32"
       style="opacity:1;fill:none;fill-opacity:1;stroke:none"
       x="0"
       y="0" />
    <rect
       class="ColorScheme-Text"
       id="panel"
       style="fill:currentColor"
       width="18"
       height="11"
       x="7"
       y="10" />
  </g>
</svg>
