<?xml version="1.0" encoding="UTF-8" standalone="no"?>
<svg
   id="svg4153"
   version="1.1"
   width="32.000004"
   height="32"
   viewBox="0 0 32.000004 32"
   sodipodi:docname="offMonitor.svg"
   inkscape:version="1.1.1 (3bf5ae0d25, 2021-09-20)"
   xmlns:inkscape="http://www.inkscape.org/namespaces/inkscape"
   xmlns:sodipodi="http://sodipodi.sourceforge.net/DTD/sodipodi-0.dtd"
   xmlns="http://www.w3.org/2000/svg"
   xmlns:svg="http://www.w3.org/2000/svg"
   xmlns:rdf="http://www.w3.org/1999/02/22-rdf-syntax-ns#"
   xmlns:cc="http://creativecommons.org/ns#"
   xmlns:dc="http://purl.org/dc/elements/1.1/">
  <sodipodi:namedview
     id="namedview12"
     pagecolor="#ffffff"
     bordercolor="#666666"
     borderopacity="1.0"
     inkscape:pageshadow="2"
     inkscape:pageopacity="0.0"
     inkscape:pagecheckerboard="0"
     showgrid="false"
     inkscape:zoom="26.625"
     inkscape:cx="31.830986"
     inkscape:cy="15.981221"
     inkscape:window-width="1920"
     inkscape:window-height="1047"
     inkscape:window-x="0"
     inkscape:window-y="0"
     inkscape:window-maximized="1"
     inkscape:current-layer="monitor-panel" />
  <metadata
     id="metadata4159">
    <rdf:RDF>
      <cc:Work
         rdf:about="">
        <dc:format>image/svg+xml</dc:format>
        <dc:type
           rdf:resource="http://purl.org/dc/dcmitype/StillImage" />
      </cc:Work>
    </rdf:RDF>
  </metadata>
  <defs
     id="defs4157">
    <style
       type="text/css"
       id="current-color-scheme">
      .ColorScheme-Text {
        color:#31363b;
      }
      .ColorScheme-Background {
        color:#eff0f1;
      }
      .ColorScheme-Highlight {
        color:#3daee9;
      }
      .ColorScheme-ViewText {
        color:#31363b;
      }
      .ColorScheme-ViewBackground {
        color:#fcfcfc;
      }
      .ColorScheme-ViewHover {
        color:#93cee9;
      }
      .ColorScheme-ViewFocus{
        color:#3daee9;
      }
      .ColorScheme-ButtonText {
        color:#31363b;
      }
      .ColorScheme-ButtonBackground {
        color:#eff0f1;
      }
      .ColorScheme-ButtonHover {
        color:#93cee9;
      }
      .ColorScheme-ButtonFocus{
        color:#3daee9;
      }
      </style>
  </defs>
  <g
     id="monitor-monitor"
     style="display:inline">
    <path
       id="monitor"
       d="m 16.000002,2 c -7.7260643,-1e-7 -14.0000002,6.2739363 -14.0000001,14 0,7.726064 6.2739358,14 14.0000001,14 7.726064,0 14,-6.273936 14,-14 0,-7.7260636 -6.273936,-14 -14,-14 z m 0,1 c 7.185642,0 13,5.8143587 13,13 0,7.185641 -5.814358,13 -13,13 C 8.81436,29 3.0000019,23.185641 3.0000019,16 3.0000018,8.8143586 8.8143599,2.9999999 16.000002,3 Z M 6.0000019,9 5.9902363,22.990234 15.000002,23 v 2 h -5 v 1 h 12 v -1 h -5 v -2 h 9 V 9 Z m 1,1 H 25.000002 V 21 H 7.0000019 Z"
       class="ColorScheme-Text"
       style="display:inline;fill:currentColor" />
  </g>
  <g
     height="32"
     width="32"
     id="monitor-panel"
     style="display:inline">
    <rect
       class="ColorScheme-Text"
       id="panel"
       style="display:inline;fill:currentColor"
       width="18"
       height="11"
       x="7.0000019"
       y="10" />
  </g>
</svg>
