<?xml version="1.0" encoding="UTF-8" standalone="no"?>
<svg
   xmlns:dc="http://purl.org/dc/elements/1.1/"
   xmlns:cc="http://creativecommons.org/ns#"
   xmlns:rdf="http://www.w3.org/1999/02/22-rdf-syntax-ns#"
   xmlns:svg="http://www.w3.org/2000/svg"
   xmlns="http://www.w3.org/2000/svg"
   id="svg4153"
   version="1.1"
   width="32.000004"
   height="32"
   viewBox="0 0 32.000004 32">
  <metadata
     id="metadata4159">
    <rdf:RDF>
      <cc:Work
         rdf:about="">
        <dc:format>image/svg+xml</dc:format>
        <dc:type
           rdf:resource="http://purl.org/dc/dcmitype/StillImage" />
        <dc:title></dc:title>
      </cc:Work>
    </rdf:RDF>
  </metadata>
  <defs
     id="defs4157">
    <style
       type="text/css"
       id="current-color-scheme">
      .ColorScheme-Text {
        color:#31363b;
      }
      .ColorScheme-Background {
        color:#eff0f1;
      }
      .ColorScheme-Highlight {
        color:#3daee9;
      }
      .ColorScheme-ViewText {
        color:#31363b;
      }
      .ColorScheme-ViewBackground {
        color:#fcfcfc;
      }
      .ColorScheme-ViewHover {
        color:#93cee9;
      }
      .ColorScheme-ViewFocus{
        color:#3daee9;
      }
      .ColorScheme-ButtonText {
        color:#31363b;
      }
      .ColorScheme-ButtonBackground {
        color:#eff0f1;
      }
      .ColorScheme-ButtonHover {
        color:#93cee9;
      }
      .ColorScheme-ButtonFocus{
        color:#3daee9;
      }
      </style>
  </defs>
  <g
     id="monitor-monitor">
    <rect
       x="0"
       y="0"
       height="32"
       width="32"
       id="rect18"
       style="opacity:1;fill:none;fill-opacity:1;stroke:none" />
    <path
       id="monitor"
       d="M 16,2 C 8.2739358,1.9999999 1.9999999,8.2739363 2,16 2,23.726064 8.2739358,30 16,30 23.726064,30 30,23.726064 30,16 30,8.2739364 23.726064,2 16,2 Z m 0,1 C 23.185642,3 29,8.8143587 29,16 29,23.185641 23.185642,29 16,29 8.8143581,29 3,23.185641 3,16 2.9999999,8.8143586 8.814358,2.9999999 16,3 Z M 6,9 5.9902344,22.990234 15,23 v 2 h -5 v 1 h 12 v -1 h -5 v -2 h 9 V 9 Z m 1,1 H 25 V 21 H 7 Z"
       class="ColorScheme-Text"
       style="fill:currentColor" />
  </g>
  <g
     height="32"
     width="32"
     id="monitor-panel">
    <rect
       id="rect843"
       width="32"
       height="32"
       style="opacity:1;fill:none;fill-opacity:1;stroke:none"
       x="0"
       y="0" />
    <rect
       class="ColorScheme-Text"
       id="panel"
       style="fill:currentColor"
       width="18"
       height="11"
       x="7"
       y="10" />
  </g>
</svg>
